<?xml version="1.0" standalone="no"?>
<!DOCTYPE svg PUBLIC "-//W3C//DTD SVG 20010904//EN"
 "http://www.w3.org/TR/2001/REC-SVG-20010904/DTD/svg10.dtd">
<svg version="1.0" xmlns="http://www.w3.org/2000/svg"
 width="1280.000000pt" height="1032.000000pt" viewBox="0 0 1280.000000 1032.000000"
 preserveAspectRatio="xMidYMid meet">
<metadata>
Created by potrace 1.15, written by Peter Selinger 2001-2017
</metadata>
<g transform="translate(0.000000,1032.000000) scale(0.100000,-0.100000)"
fill="#000000" stroke="none">
<path d="M680 10294 c-6 -14 -10 -40 -10 -59 0 -56 -20 -183 -35 -218 -7 -17
-28 -46 -47 -64 -63 -61 -144 -80 -268 -63 -49 7 -86 8 -92 2 -5 -5 -5 -27 1
-54 12 -54 102 -268 112 -268 4 0 22 25 39 55 86 150 292 370 445 474 44 30
82 56 84 58 8 6 -61 73 -122 119 -68 51 -93 55 -107 18z"/>
<path d="M1600 10199 c-147 -22 -203 -33 -295 -56 -416 -103 -705 -315 -864
-631 -49 -97 -99 -256 -122 -388 -19 -107 -39 -436 -26 -424 2 3 56 82 119
176 300 447 574 771 876 1033 87 75 298 235 351 267 28 17 42 36 24 33 -5 -1
-33 -5 -63 -10z"/>
<path d="M1773 10147 c-443 -253 -891 -736 -1272 -1371 -180 -300 -216 -391
-246 -621 -32 -252 -76 -400 -161 -548 -77 -133 -87 -157 -92 -211 -7 -91 41
-167 133 -210 65 -31 187 -51 234 -39 l34 9 28 139 c68 331 182 744 284 1026
319 878 759 1458 1297 1708 90 43 210 85 273 97 l40 7 -35 15 c-60 24 -262 62
-336 62 -68 0 -74 -2 -181 -63z"/>
<path d="M2390 10020 c-555 -121 -993 -508 -1324 -1169 -209 -420 -358 -880
-475 -1476 -55 -281 -56 -255 9 -288 47 -25 63 -28 116 -24 174 13 299 154
339 383 9 55 28 143 41 196 82 332 247 597 432 696 51 27 66 42 93 90 299 528
827 910 1492 1082 65 16 143 33 173 36 30 4 54 10 54 13 0 4 -26 32 -57 62
-174 167 -410 312 -628 385 -116 38 -145 40 -265 14z"/>
<path d="M3225 9385 c-373 -88 -776 -296 -1083 -560 -168 -145 -312 -324 -401
-501 -65 -129 -64 -123 -25 -184 59 -94 113 -276 114 -382 0 -27 3 -48 8 -47
4 0 39 51 79 112 387 602 1052 1058 1806 1238 53 13 97 26 97 29 -1 17 -179
205 -243 258 l-78 62 -87 -1 c-54 0 -125 -9 -187 -24z"/>
<path d="M3725 8935 c-228 -34 -486 -136 -760 -302 -379 -227 -738 -553 -925
-838 -81 -123 -100 -174 -100 -262 0 -103 20 -366 29 -376 4 -4 30 28 58 70
347 530 896 990 1483 1241 160 69 341 128 473 154 62 12 113 22 115 24 8 5
-90 185 -132 242 l-46 62 -52 -1 c-29 -1 -93 -7 -143 -14z"/>
<path d="M4040 8495 c-483 -77 -1213 -510 -1602 -951 -169 -192 -286 -379
-356 -569 -29 -78 -66 -224 -59 -231 2 -2 49 50 105 115 702 821 1358 1248
2080 1351 60 9 82 16 82 27 0 8 -28 73 -62 144 -69 145 -52 135 -188 114z"/>
<path d="M4155 8118 c-394 -74 -977 -391 -1405 -763 -142 -123 -325 -316 -417
-438 -143 -192 -232 -383 -249 -537 l-7 -65 94 129 c317 435 659 767 1059
1029 361 235 706 390 1075 483 61 15 111 28 113 29 2 2 -13 35 -32 74 l-36 71
-73 -1 c-39 -1 -94 -6 -122 -11z"/>
<path d="M4300 7868 c-202 -41 -506 -159 -722 -279 -314 -174 -580 -374 -847
-634 -333 -326 -558 -646 -635 -910 -44 -147 -41 -159 13 -58 280 526 700 946
1266 1268 286 163 703 327 1045 411 61 15 110 32 110 38 0 6 -14 50 -32 99
l-32 87 -36 -1 c-19 0 -78 -10 -130 -21z"/>
<path d="M4515 7593 c-596 -136 -1164 -419 -1650 -824 -385 -320 -667 -740
-745 -1112 -26 -121 -24 -138 5 -54 14 38 58 126 100 195 423 709 1174 1265
1990 1476 115 30 172 41 391 73 l50 8 -39 123 c-42 130 -42 129 -102 115z"/>
<path d="M4805 7243 c-723 -24 -1528 -386 -2075 -933 -356 -356 -554 -749
-549 -1088 2 -122 11 -128 43 -27 92 295 267 622 467 873 90 113 290 314 404
407 294 240 684 437 1050 530 271 69 469 90 770 82 297 -9 506 -45 788 -137
327 -108 563 -253 802 -494 288 -290 476 -626 562 -1006 23 -102 26 -137 27
-310 0 -208 -8 -263 -59 -416 -121 -360 -431 -639 -876 -787 -120 -40 -351
-93 -451 -103 -38 -4 -68 -10 -68 -13 0 -12 291 -43 455 -48 413 -14 678 74
887 295 146 155 216 294 283 562 41 160 56 277 62 462 6 188 -4 303 -39 466
-81 383 -298 740 -611 1009 -268 229 -590 403 -1007 544 -303 102 -564 142
-865 132z"/>
<path d="M4660 7023 c-360 -30 -805 -172 -1147 -368 -717 -410 -1164 -1003
-1269 -1680 -7 -49 -13 -112 -13 -140 l0 -50 19 75 c183 706 725 1347 1455
1721 400 205 769 300 1170 302 392 1 699 -83 1009 -275 328 -203 634 -570 781
-937 106 -266 132 -526 76 -746 -84 -325 -335 -557 -643 -594 -46 -6 -155 -15
-243 -21 -726 -51 -1092 -246 -1215 -645 -42 -137 -61 -373 -44 -523 l7 -52
52 107 c111 228 259 387 479 513 164 94 348 160 721 260 454 121 624 192 810
340 178 142 310 377 350 622 67 415 -96 896 -442 1299 -111 129 -216 227 -358
333 -146 110 -222 156 -388 237 -357 174 -776 254 -1167 222z"/>
<path d="M7295 7019 c-97 -13 -97 -13 -35 -44 138 -70 293 -186 414 -309 264
-272 450 -623 686 -1296 175 -497 247 -667 351 -824 171 -260 372 -348 649
-287 112 25 197 58 340 132 l118 61 15 56 c38 139 42 178 42 392 -1 215 -10
309 -51 495 -39 177 -126 431 -162 475 -11 13 -51 29 -121 46 -245 61 -511
198 -742 381 -41 33 -136 119 -212 191 -255 244 -468 381 -721 466 -177 59
-416 86 -571 65z"/>
<path d="M6671 6964 c0 -5 53 -35 117 -67 482 -237 826 -715 947 -1312 34
-170 40 -236 39 -455 0 -239 -5 -277 -74 -640 -82 -431 -110 -644 -110 -855 0
-225 33 -365 122 -517 38 -64 151 -198 168 -198 4 0 13 51 19 113 41 382 93
589 179 702 178 234 460 52 836 -540 42 -66 88 -130 102 -143 43 -38 86 -22
288 108 196 126 353 195 488 215 l48 7 -38 43 c-46 53 -86 133 -101 203 -26
126 -2 334 63 537 14 43 24 80 23 82 -2 1 -42 -18 -90 -43 -164 -85 -309 -124
-461 -124 -287 0 -534 159 -738 476 -72 113 -147 290 -233 554 -164 506 -219
650 -345 905 -171 346 -366 604 -580 766 -76 59 -240 141 -325 164 -66 18
-346 33 -344 19z"/>
<path d="M8356 6910 c73 -93 355 -364 499 -479 289 -232 550 -371 696 -371
l37 0 4 94 c3 80 8 102 37 160 78 159 275 306 506 379 230 72 418 59 631 -43
232 -112 398 -340 473 -651 156 -644 198 -1331 136 -2214 -22 -307 -18 -513 7
-469 20 35 66 218 97 384 112 605 123 1567 26 2224 -82 551 -352 883 -804 987
-59 14 -139 22 -256 26 -197 6 -327 -8 -580 -62 -219 -47 -302 -62 -431 -79
-409 -54 -743 -12 -1028 130 -49 24 -91 44 -93 44 -3 0 17 -27 43 -60z"/>
<path d="M6360 6889 c537 -285 880 -682 1023 -1184 56 -196 71 -311 71 -560 1
-205 -2 -241 -22 -335 -52 -233 -96 -361 -307 -895 -156 -395 -158 -403 -158
-540 0 -119 6 -151 73 -356 22 -68 48 -165 56 -215 14 -81 14 -99 1 -178 -16
-92 -61 -200 -117 -281 l-31 -45 28 -11 c47 -18 155 -39 203 -39 206 0 422
132 561 343 87 133 89 121 -77 328 -118 148 -185 277 -220 425 -13 56 -15 105
-11 254 6 211 17 287 93 670 105 522 119 645 111 920 -11 337 -80 617 -226
910 -242 483 -610 776 -1056 840 -115 16 -115 12 5 -51z"/>
<path d="M4660 6810 c-676 -43 -1416 -466 -1916 -1096 -231 -289 -383 -595
-439 -880 -15 -80 -31 -272 -22 -263 4 3 18 48 31 100 43 166 95 299 186 484
364 739 1033 1311 1725 1476 146 34 283 49 470 49 186 0 310 -13 473 -50 502
-111 948 -430 1122 -803 66 -140 84 -221 84 -382 1 -87 -4 -161 -13 -195 -53
-215 -202 -348 -462 -414 -124 -32 -197 -41 -496 -66 -422 -35 -572 -65 -742
-147 -83 -39 -108 -59 -197 -147 -200 -199 -307 -421 -344 -712 -15 -122 -9
-364 15 -514 28 -183 102 -463 177 -673 l21 -59 22 74 c12 40 47 127 77 193
73 157 82 198 69 306 -6 46 -13 145 -17 219 -17 370 77 623 297 796 231 182
370 222 999 289 434 46 554 85 680 222 210 228 246 606 98 1013 -128 351 -391
665 -737 880 -360 223 -755 325 -1161 300z"/>
<path d="M4460 6609 c-482 -50 -956 -294 -1365 -704 -385 -386 -649 -869 -760
-1390 -29 -139 -43 -247 -50 -405 -7 -140 10 -534 24 -558 18 -32 45 145 71
468 34 409 83 641 197 929 161 407 401 751 698 1000 268 223 671 430 985 505
431 103 862 26 1170 -207 105 -80 254 -234 297 -307 185 -314 -47 -546 -692
-695 -194 -44 -281 -73 -404 -131 -353 -167 -587 -459 -691 -862 -67 -260 -68
-618 -5 -952 73 -381 244 -800 482 -1179 102 -163 171 -252 90 -116 -234 392
-387 790 -458 1190 -16 92 -22 177 -26 365 -8 367 11 496 98 676 140 292 397
502 738 603 180 54 290 69 566 81 318 13 476 46 614 128 158 93 231 234 218
422 -14 214 -144 450 -365 662 -351 336 -927 528 -1432 477z"/>
<path d="M10607 6532 c-24 -27 -37 -69 -36 -120 0 -50 15 -109 73 -296 68
-220 104 -410 114 -605 7 -122 0 -327 -12 -393 -5 -25 -2 -28 32 -34 179 -32
286 -251 352 -714 20 -138 40 -443 41 -625 l0 -180 25 70 c31 87 60 221 81
379 21 149 24 828 5 1056 -63 750 -188 1166 -411 1373 -103 94 -222 135 -264
89z"/>
<path d="M11450 6526 c0 -2 13 -41 29 -87 144 -411 211 -834 211 -1341 0 -298
-7 -388 -70 -903 -103 -840 -128 -1115 -100 -1115 6 0 10 6 10 14 0 8 16 72
35 142 101 366 172 780 205 1194 79 988 43 1420 -151 1829 -55 116 -169 296
-169 267z"/>
<path d="M4380 6380 c-428 -60 -854 -275 -1174 -594 -385 -383 -638 -926 -730
-1566 -26 -178 -48 -500 -35 -500 5 0 9 15 9 33 0 41 40 265 74 415 169 745
509 1333 957 1655 113 81 319 186 447 227 275 89 633 111 797 49 144 -54 202
-177 140 -299 -45 -89 -156 -181 -374 -310 -131 -77 -208 -136 -301 -231 -251
-256 -414 -632 -469 -1084 -15 -123 -22 -344 -13 -405 l8 -55 7 50 c26 167 89
415 146 570 165 448 423 774 738 934 92 46 187 75 393 121 314 70 429 117 527
217 60 61 90 138 78 201 -41 227 -371 476 -732 552 -112 24 -385 35 -493 20z"/>
<path d="M11760 6115 c0 -6 11 -64 24 -130 27 -129 58 -340 77 -525 19 -172
16 -724 -5 -939 -45 -470 -133 -958 -261 -1441 -13 -52 -25 -100 -25 -106 0
-6 14 -17 31 -24 34 -15 80 -86 99 -156 7 -24 16 -44 19 -44 4 0 13 60 19 133
7 72 19 204 27 292 19 204 20 215 60 430 216 1159 218 1836 6 2369 -35 86 -70
157 -71 141z"/>
<path d="M4315 6033 c-125 -15 -247 -41 -347 -73 -382 -126 -698 -377 -948
-756 -216 -327 -383 -797 -450 -1266 -21 -140 -40 -303 -39 -328 0 -23 1 -23
9 -5 5 11 56 146 114 300 164 442 255 660 395 950 209 433 383 674 541 754
113 56 206 36 249 -53 44 -90 33 -130 -176 -671 -166 -428 -364 -998 -351
-1011 11 -10 104 65 144 115 86 108 137 222 279 621 168 470 225 579 385 740
106 108 184 170 365 295 156 107 215 156 241 200 60 102 5 158 -181 185 -68 9
-168 11 -230 3z"/>
<path d="M3608 5510 c-117 -77 -317 -377 -544 -815 -85 -165 -152 -322 -234
-555 -26 -74 -62 -170 -79 -214 -45 -112 -81 -241 -81 -290 l1 -41 40 45 c50
56 141 241 209 425 67 180 128 309 182 387 l43 61 3 -119 c2 -65 -2 -183 -7
-260 -13 -172 -14 -344 -2 -344 5 0 26 19 48 43 43 47 58 83 131 307 71 223
191 554 254 705 125 295 162 420 162 547 1 89 -1 98 -23 122 -31 33 -47 33
-103 -4z"/>
<path d="M12035 5470 c49 -283 68 -716 44 -993 -13 -160 -44 -370 -75 -515
-91 -426 -118 -577 -154 -867 -22 -176 -26 -298 -9 -255 23 56 163 594 208
800 100 453 126 659 126 1010 -1 261 -5 317 -42 505 -28 144 -120 437 -98 315z"/>
<path d="M10740 4938 c0 -2 9 -73 20 -158 74 -570 138 -898 200 -1026 65 -132
107 13 96 326 -15 429 -112 754 -250 839 -28 18 -66 28 -66 19z"/>
<path d="M12271 4600 c-3 -491 -65 -853 -257 -1495 -124 -412 -140 -492 -115
-567 12 -38 46 -75 54 -61 3 5 28 82 55 173 53 173 69 233 206 760 92 353 120
551 120 840 1 236 -9 332 -48 490 -13 53 -14 47 -15 -140z"/>
<path d="M2183 4298 c-99 -105 -133 -196 -133 -352 0 -184 42 -366 96 -417 20
-18 28 -21 42 -13 15 10 17 42 18 345 0 263 4 350 16 409 9 41 15 76 14 78 -2
1 -25 -21 -53 -50z"/>
<path d="M3065 4293 c-36 -77 -71 -166 -165 -418 -43 -115 -82 -218 -86 -228
-6 -16 -3 -17 22 -11 43 10 187 78 200 95 6 8 14 39 17 69 3 30 13 118 21 195
21 184 33 355 25 355 -4 0 -19 -26 -34 -57z"/>
<path d="M1952 4118 c-113 -122 -137 -461 -44 -632 36 -66 78 -92 127 -76 19
6 35 14 35 16 0 3 -16 50 -35 105 -55 158 -68 248 -63 442 2 92 3 167 2 167 0
0 -10 -10 -22 -22z"/>
<path d="M12415 3993 c-60 -437 -175 -925 -330 -1397 -25 -76 -44 -141 -41
-143 2 -2 23 -14 47 -26 33 -16 46 -30 54 -54 10 -37 20 -42 28 -15 3 9 23 69
46 132 57 163 99 305 177 599 25 92 25 105 30 522 3 236 3 429 0 429 -2 0 -8
-21 -11 -47z"/>
<path d="M1725 3968 c-71 -63 -95 -121 -95 -235 0 -101 17 -189 75 -378 19
-64 35 -118 35 -121 0 -2 20 12 45 30 24 19 54 37 64 41 20 6 20 7 -5 73 -81
209 -97 272 -97 382 1 62 8 133 17 174 10 37 15 70 13 72 -2 2 -26 -15 -52
-38z"/>
<path d="M1525 3807 c-8 -13 -25 -50 -37 -83 -19 -51 -22 -78 -22 -209 0 -151
7 -203 52 -370 39 -144 55 -195 60 -191 9 9 92 199 92 211 0 6 -23 83 -50 170
-60 191 -83 313 -78 417 2 43 2 78 1 78 -1 0 -9 -10 -18 -23z"/>
<path d="M1341 3723 c-62 -75 -75 -129 -75 -303 0 -131 5 -173 27 -275 39
-171 176 -571 191 -554 7 8 -24 276 -43 379 -98 517 -99 524 -78 667 9 64 15
118 13 120 -2 2 -18 -13 -35 -34z"/>
<path d="M3766 3472 c-4 -7 -14 -72 -23 -145 -62 -513 184 -1053 772 -1697 43
-47 207 -217 364 -379 157 -161 296 -310 308 -330 32 -51 32 -129 -1 -160 -32
-30 -128 -54 -186 -47 l-45 6 35 -31 c58 -52 177 -126 230 -144 30 -10 62 -14
79 -10 28 6 31 11 57 118 32 130 44 300 24 347 -7 17 -44 53 -86 85 -213 160
-465 395 -634 591 -416 483 -694 1031 -859 1698 -16 62 -31 105 -35 98z"/>
<path d="M1155 3375 c-18 -90 -10 -377 14 -513 39 -228 95 -420 191 -663 64
-160 184 -419 195 -419 11 0 -4 154 -26 270 -26 138 -66 266 -150 483 -143
367 -196 581 -212 847 l-2 45 -10 -50z"/>
<path d="M12536 3175 c-15 -60 -50 -186 -76 -280 -66 -232 -117 -428 -145
-565 -23 -108 -23 -116 -7 -128 24 -19 55 -11 69 18 7 14 13 58 13 98 0 68 2
76 29 103 16 16 37 29 46 29 29 0 74 -33 102 -73 24 -34 28 -37 34 -21 4 11
23 61 42 111 l35 93 -24 76 c-32 104 -53 238 -73 461 l-16 188 -29 -110z"/>
<path d="M9730 3216 c-109 -30 -172 -55 -290 -117 -103 -54 -300 -179 -300
-191 0 -5 12 -8 26 -8 52 0 275 -51 366 -83 236 -85 408 -242 512 -469 29 -64
54 -135 101 -292 l11 -40 38 60 c75 119 137 275 168 419 7 33 12 119 12 190 0
212 -47 340 -164 448 -83 77 -144 99 -285 104 -92 3 -124 -1 -195 -21z"/>
<path d="M1106 2645 c16 -376 119 -742 300 -1070 54 -97 235 -377 240 -372 2
1 -19 74 -47 162 -27 88 -49 166 -49 173 0 8 -42 100 -94 205 -164 333 -286
682 -350 997 -3 14 -3 -29 0 -95z"/>
<path d="M3686 2690 c36 -351 340 -945 704 -1375 92 -108 310 -321 390 -379
83 -62 161 -100 230 -116 75 -16 114 -11 118 16 7 51 -192 269 -658 719 -295
285 -536 628 -702 999 -95 211 -88 200 -82 136z"/>
<path d="M12712 2470 c-5 -14 -21 -60 -37 -102 l-27 -77 29 -53 c35 -62 73
-89 100 -72 29 19 20 111 -21 229 -31 89 -35 97 -44 75z"/>
<path d="M10430 2343 c-43 -130 -124 -316 -162 -375 -34 -54 -33 -75 5 -122
l24 -30 56 80 c81 113 134 219 148 294 9 54 9 79 -5 149 -8 47 -19 88 -24 93
-5 5 -23 -35 -42 -89z"/>
<path d="M1030 2189 c-1 -387 150 -837 408 -1214 117 -172 311 -399 327 -384
3 4 9 38 12 75 7 89 -2 111 -114 261 -236 316 -390 632 -569 1168 l-63 190 -1
-96z"/>
<path d="M6840 2098 c-19 -34 -81 -129 -138 -211 -56 -82 -101 -151 -100 -152
11 -10 122 -25 181 -25 198 1 377 98 501 274 47 66 100 165 93 173 -3 2 -58
-3 -123 -11 -65 -9 -152 -16 -194 -16 -67 0 -97 5 -165 24 -16 5 -26 -5 -55
-56z"/>
<path d="M10542 2058 c-24 -47 -81 -136 -128 -198 -46 -62 -87 -117 -91 -123
-4 -7 37 -111 54 -136 7 -10 98 89 143 156 66 99 90 167 90 256 -1 40 -6 85
-13 101 l-12 28 -43 -84z"/>
<path d="M10575 1724 c-72 -103 -134 -194 -138 -203 -6 -12 5 -46 34 -109 23
-51 45 -92 48 -92 10 0 91 114 146 205 70 116 105 195 105 235 -1 38 -40 142
-55 147 -6 2 -69 -81 -140 -183z"/>
<path d="M10715 1429 c-150 -230 -160 -252 -144 -315 6 -24 14 -46 18 -48 8
-5 185 191 234 259 46 66 67 124 66 184 -1 49 -20 113 -35 117 -5 2 -67 -87
-139 -197z"/>
<path d="M6428 1523 c-34 -43 -87 -104 -117 -136 -32 -33 -51 -61 -45 -66 13
-12 281 -88 335 -95 59 -9 82 9 139 106 24 40 71 114 106 165 49 72 60 93 48
97 -9 3 -103 6 -209 6 l-194 0 -63 -77z"/>
<path d="M1050 1470 c0 -57 61 -311 106 -441 109 -314 320 -588 512 -665 54
-21 62 -13 62 63 0 50 -3 55 -51 105 -140 143 -406 539 -578 858 -28 52 -51
88 -51 80z"/>
<path d="M10940 1330 c-38 -79 -88 -146 -214 -289 l-88 -101 36 -77 37 -77 32
39 c18 22 54 64 80 95 148 168 181 239 175 373 -2 48 -9 92 -14 97 -7 7 -21
-13 -44 -60z"/>
<path d="M6076 1115 c-36 -52 -67 -100 -68 -106 -3 -12 177 -97 297 -140 137
-49 208 -34 259 54 38 64 68 157 53 161 -7 2 -71 18 -143 35 -72 17 -172 44
-222 61 -50 16 -96 30 -101 30 -5 0 -39 -43 -75 -95z"/>
<path d="M11036 1052 c-51 -104 -110 -183 -195 -266 -50 -48 -71 -75 -71 -92
0 -30 41 -113 68 -137 19 -17 21 -16 79 50 152 174 193 244 193 333 -1 50 -22
175 -32 185 -2 2 -21 -30 -42 -73z"/>
<path d="M5858 808 c-21 -40 -65 -120 -99 -177 -33 -56 -58 -105 -55 -109 3
-3 99 -7 214 -10 197 -4 313 5 334 26 15 15 -71 169 -121 221 -50 52 -143 105
-202 116 -34 6 -34 6 -71 -67z"/>
<path d="M11172 810 c-32 -76 -101 -177 -180 -261 -40 -42 -72 -80 -72 -84 0
-9 84 -118 105 -135 16 -13 26 -6 107 80 112 120 158 185 158 226 0 38 -78
224 -94 224 -2 0 -13 -22 -24 -50z"/>
<path d="M11390 609 c0 -24 -85 -131 -179 -224 -110 -109 -117 -124 -76 -174
29 -33 117 -101 133 -101 21 0 113 303 126 415 4 33 9 68 12 78 3 9 1 17 -5
17 -6 0 -11 -5 -11 -11z"/>
<path d="M5642 409 c-23 -12 -61 -42 -83 -68 l-41 -46 88 -18 c49 -10 150 -21
225 -24 157 -6 211 5 275 61 l38 33 -26 17 c-37 24 -115 43 -230 55 -145 16
-197 14 -246 -10z"/>
<path d="M5466 175 c-3 -9 -6 -41 -6 -71 l0 -53 53 -16 c77 -22 180 -35 287
-35 90 0 243 14 283 26 20 6 20 7 -4 98 l-10 38 -117 -6 c-85 -5 -153 -3 -247
9 -228 29 -231 29 -239 10z"/>
</g>
</svg>
